<svg width="34" height="21" viewBox="0 0 34 21" fill="none" xmlns="http://www.w3.org/2000/svg">
<path fill-rule="evenodd" clip-rule="evenodd" d="M0 4.2C0 3.08609 0.442499 2.0178 1.23015 1.23015C2.0178 0.442499 3.08609 2.90876e-08 4.2 2.90876e-08H19.95C20.9687 -0.000119801 21.9527 0.370005 22.7188 1.04145C23.4849 1.71289 23.9809 2.63988 24.1143 3.6498L30.6453 0.7476C30.965 0.60516 31.3152 0.544874 31.6641 0.572219C32.013 0.599565 32.3495 0.713677 32.6431 0.904181C32.9367 1.09469 33.178 1.35554 33.3451 1.66304C33.5122 1.97054 33.5998 2.31493 33.6 2.6649V18.3351C33.5997 18.6848 33.5121 19.0289 33.3451 19.3361C33.1781 19.6434 32.937 19.9041 32.6437 20.0945C32.3504 20.285 32.0142 20.3992 31.6656 20.4267C31.317 20.4543 30.967 20.3944 30.6474 20.2524L24.1143 17.3502C23.9809 18.3601 23.4849 19.2871 22.7188 19.9586C21.9527 20.63 20.9687 21.0001 19.95 21H4.2C3.08609 21 2.0178 20.5575 1.23015 19.7698C0.442499 18.9822 0 17.9139 0 16.8V4.2Z" fill="#AAAAAA"/>
</svg>
