<svg width="42" height="36" viewBox="0 0 42 36" fill="none" xmlns="http://www.w3.org/2000/svg">
<path d="M16.7122 18.8389C21.3753 18.8389 25.1675 15.0467 25.1675 10.3835C25.1675 5.72043 21.3753 1.92822 16.7122 1.92822C12.0491 1.92822 8.25687 5.72043 8.25687 10.3835C8.25687 15.0467 12.0491 18.8389 16.7122 18.8389ZM19.8829 20.9527H13.5414C6.54678 20.9527 0.858459 26.641 0.858459 33.6357V35.7495H32.5659V33.6357C32.5659 26.641 26.8776 20.9527 19.8829 20.9527Z" fill="#AAAAAA"/>
<path d="M31.7287 16.8264C33.0161 14.6324 33.5721 12.0858 33.3162 9.55484C32.9378 5.78377 30.8325 2.45026 27.3911 0.169434L25.0554 3.69108C27.4207 5.25954 28.8603 7.49386 29.1097 9.97761C29.2247 11.132 29.081 12.2974 28.689 13.3893C28.297 14.4811 27.6666 15.4719 26.8437 16.2895L24.324 18.8092L27.7442 19.8133C36.6899 22.4344 36.7935 31.4309 36.7935 31.5218H41.0211C41.0211 27.7401 39.0003 20.3502 31.7287 16.8264Z" fill="#AAAAAA"/>
</svg>
