<svg width="36" height="35" viewBox="0 0 36 35" fill="none" xmlns="http://www.w3.org/2000/svg">
<path d="M30.465 0.542725H5.76477C4.36101 0.542725 3.01473 1.10108 2.02212 2.09497C1.02951 3.08886 0.471863 4.43686 0.471863 5.84243V32.3409C0.472402 32.654 0.556 32.9612 0.714102 33.2313C0.872205 33.5013 1.09913 33.7245 1.37166 33.8779C1.63534 34.0275 1.93308 34.1066 2.23617 34.1075C2.55283 34.1074 2.86363 34.022 3.13596 33.8602L11.0577 29.0551C11.3505 28.8806 11.6875 28.7947 12.028 28.8078H30.465C31.8688 28.8078 33.2151 28.2495 34.2077 27.2556C35.2003 26.2617 35.7579 24.9137 35.7579 23.5081V5.84243C35.7579 4.43686 35.2003 3.08886 34.2077 2.09497C33.2151 1.10108 31.8688 0.542725 30.465 0.542725ZM11.0577 16.4418C10.7087 16.4418 10.3676 16.3382 10.0775 16.1441C9.78735 15.95 9.56121 15.6741 9.42768 15.3513C9.29414 15.0285 9.2592 14.6733 9.32728 14.3306C9.39536 13.9879 9.56339 13.6732 9.81013 13.4261C10.0569 13.1791 10.3712 13.0108 10.7135 12.9426C11.0557 12.8745 11.4105 12.9095 11.7329 13.0432C12.0552 13.1769 12.3308 13.4033 12.5246 13.6938C12.7185 13.9843 12.822 14.3259 12.822 14.6753C12.822 15.1438 12.6361 15.5931 12.3052 15.9244C11.9744 16.2557 11.5256 16.4418 11.0577 16.4418ZM18.1149 16.4418C17.7659 16.4418 17.4248 16.3382 17.1347 16.1441C16.8446 15.95 16.6184 15.6741 16.4849 15.3513C16.3514 15.0285 16.3164 14.6733 16.3845 14.3306C16.4526 13.9879 16.6206 13.6732 16.8673 13.4261C17.1141 13.1791 17.4285 13.0108 17.7707 12.9426C18.1129 12.8745 18.4677 12.9095 18.7901 13.0432C19.1124 13.1769 19.388 13.4033 19.5819 13.6938C19.7757 13.9843 19.8792 14.3259 19.8792 14.6753C19.8792 15.1438 19.6933 15.5931 19.3624 15.9244C19.0316 16.2557 18.5828 16.4418 18.1149 16.4418ZM25.1721 16.4418C24.8232 16.4418 24.4821 16.3382 24.1919 16.1441C23.9018 15.95 23.6756 15.6741 23.5421 15.3513C23.4086 15.0285 23.3736 14.6733 23.4417 14.3306C23.5098 13.9879 23.6778 13.6732 23.9246 13.4261C24.1713 13.1791 24.4857 13.0108 24.8279 12.9426C25.1702 12.8745 25.5249 12.9095 25.8473 13.0432C26.1697 13.1769 26.4452 13.4033 26.6391 13.6938C26.8329 13.9843 26.9364 14.3259 26.9364 14.6753C26.9364 15.1438 26.7505 15.5931 26.4197 15.9244C26.0888 16.2557 25.64 16.4418 25.1721 16.4418Z" fill="#27AE60"/>
</svg>
