<svg width="7" height="28" viewBox="0 0 7 28" fill="none" xmlns="http://www.w3.org/2000/svg">
<path d="M6.46154 24.7692C6.46154 25.6261 6.12115 26.4478 5.51527 27.0537C4.90938 27.6596 4.08762 28 3.23077 28C2.37392 28 1.55216 27.6596 0.94627 27.0537C0.340383 26.4478 0 25.6261 0 24.7692C0 23.9124 0.340383 23.0906 0.94627 22.4847C1.55216 21.8788 2.37392 21.5385 3.23077 21.5385C4.08762 21.5385 4.90938 21.8788 5.51527 22.4847C6.12115 23.0906 6.46154 23.9124 6.46154 24.7692ZM6.46154 14C6.46154 14.8569 6.12115 15.6786 5.51527 16.2845C4.90938 16.8904 4.08762 17.2308 3.23077 17.2308C2.37392 17.2308 1.55216 16.8904 0.94627 16.2845C0.340383 15.6786 0 14.8569 0 14C0 13.1431 0.340383 12.3214 0.94627 11.7155C1.55216 11.1096 2.37392 10.7692 3.23077 10.7692C4.08762 10.7692 4.90938 11.1096 5.51527 11.7155C6.12115 12.3214 6.46154 13.1431 6.46154 14ZM6.46154 3.23077C6.46154 4.08762 6.12115 4.90938 5.51527 5.51527C4.90938 6.12115 4.08762 6.46154 3.23077 6.46154C2.37392 6.46154 1.55216 6.12115 0.94627 5.51527C0.340383 4.90938 0 4.08762 0 3.23077C0 2.37391 0.340383 1.55215 0.94627 0.946268C1.55216 0.340382 2.37392 -1.90735e-06 3.23077 -1.90735e-06C4.08762 -1.90735e-06 4.90938 0.340382 5.51527 0.946268C6.12115 1.55215 6.46154 2.37391 6.46154 3.23077Z" fill="#AAAAAA"/>
</svg>
