<svg width="31" height="31" viewBox="0 0 31 31" fill="none" xmlns="http://www.w3.org/2000/svg">
<path d="M8.86599 22.4166L11.5955 21.6292L28.0302 4.99872C28.1598 4.86589 28.232 4.6874 28.2311 4.5018C28.2302 4.3162 28.1564 4.13839 28.0255 4.00678L27.0413 3.01174C26.9777 2.94639 26.9017 2.89436 26.8177 2.8587C26.7338 2.82303 26.6436 2.80444 26.5524 2.804C26.4612 2.80357 26.3709 2.82131 26.2866 2.85617C26.2024 2.89104 26.1259 2.94235 26.0617 3.00709L9.67044 19.5942L8.86444 22.4151L8.86599 22.4166ZM28.9896 1.04025L29.9739 2.03685C31.3317 3.41161 31.3441 5.62953 29.9987 6.99036L13.0634 24.1293L7.22919 25.8094C6.87299 25.909 6.4918 25.8634 6.16924 25.6823C5.84669 25.5013 5.60913 25.1997 5.50869 24.8438C5.43395 24.5878 5.43288 24.316 5.50559 24.0595L7.20284 18.1079L24.0932 1.01391C24.4143 0.690529 24.7967 0.434335 25.2179 0.260265C25.6391 0.0861961 26.0908 -0.00226428 26.5466 4.40373e-05C27.0024 0.00235235 27.4531 0.0953829 27.8726 0.27371C28.292 0.452037 28.6717 0.712091 28.9896 1.0387V1.04025ZM11.1352 2.8273C11.904 2.8273 12.5271 3.45811 12.5271 4.23617C12.5283 4.42009 12.4933 4.60245 12.424 4.77283C12.3547 4.9432 12.2524 5.09824 12.1232 5.22909C11.9939 5.35994 11.8401 5.46402 11.6706 5.53539C11.5011 5.60676 11.3191 5.64402 11.1352 5.64503H5.56759C4.02999 5.64503 2.7838 6.90666 2.7838 8.46122V25.3645C2.7838 26.9206 4.02999 28.1823 5.56759 28.1823H22.2704C23.808 28.1823 25.0557 26.9206 25.0557 25.3645V19.7306C25.0557 18.9526 25.6788 18.3217 26.4476 18.3217C27.2164 18.3217 27.8395 18.9526 27.8395 19.7322V25.3645C27.8395 28.4767 25.3456 31 22.2704 31H5.56759C2.4924 31 0 28.4767 0 25.3645V8.46122C0 5.35055 2.4924 2.8273 5.56759 2.8273H11.1352Z" fill="#AAAAAA"/>
</svg>
