<svg width="29" height="28" viewBox="0 0 29 28" fill="none" xmlns="http://www.w3.org/2000/svg">
<path d="M4.35718 26.6851V8.89502M25.1122 0V5.93001V0ZM25.1122 26.6851V11.86V26.6851ZM14.7347 0V17.79V0ZM14.7347 26.6851V23.72V26.6851ZM4.35718 0V2.96501V0Z" stroke="#AAAAAA" stroke-width="1.72127" stroke-linecap="round"/>
<path d="M25.1123 11.8602C23.4747 11.8602 22.1473 10.5327 22.1473 8.89518C22.1473 7.25765 23.4747 5.93018 25.1123 5.93018C26.7498 5.93018 28.0773 7.25765 28.0773 8.89518C28.0773 10.5327 26.7498 11.8602 25.1123 11.8602Z" fill="#AAAAAA" stroke="#AAAAAA" stroke-width="1.72127" stroke-linecap="round"/>
<path d="M14.7346 23.7201C13.0971 23.7201 11.7696 22.3926 11.7696 20.755C11.7696 19.1175 13.0971 17.79 14.7346 17.79C16.3722 17.79 17.6996 19.1175 17.6996 20.755C17.6996 22.3926 16.3722 23.7201 14.7346 23.7201Z" fill="#AAAAAA" stroke="#AAAAAA" stroke-width="1.72127" stroke-linecap="round"/>
<path d="M4.3572 8.89486C2.71967 8.89486 1.39219 7.56738 1.39219 5.92985C1.39219 4.29232 2.71967 2.96484 4.3572 2.96484C5.99473 2.96484 7.3222 4.29232 7.3222 5.92985C7.3222 7.56738 5.99473 8.89486 4.3572 8.89486Z" fill="#AAAAAA" stroke="#AAAAAA" stroke-width="1.72127" stroke-linecap="round"/>
</svg>
